<?xml version="1.0" encoding="UTF-8" standalone="no"?>
<svg
   xmlns:dc="http://purl.org/dc/elements/1.1/"
   xmlns:cc="http://creativecommons.org/ns#"
   xmlns:rdf="http://www.w3.org/1999/02/22-rdf-syntax-ns#"
   xmlns:svg="http://www.w3.org/2000/svg"
   xmlns="http://www.w3.org/2000/svg"
   xmlns:sodipodi="http://sodipodi.sourceforge.net/DTD/sodipodi-0.dtd"
   xmlns:inkscape="http://www.inkscape.org/namespaces/inkscape"
   height="48"
   width="48"
   id="svg4"
   version="1.1"
   viewBox="0 0 48 48"
   sodipodi:docname="berserker.svg"
   inkscape:export-filename="C:\Users\alexa\Desktop\ClassIcons\Berserker.png"
   inkscape:export-xdpi="256"
   inkscape:export-ydpi="256"
   inkscape:version="0.92.3 (2405546, 2018-03-11)">
  <sodipodi:namedview
     pagecolor="#ffffff"
     bordercolor="#666666"
     borderopacity="1"
     objecttolerance="10"
     gridtolerance="10"
     guidetolerance="10"
     inkscape:pageopacity="0"
     inkscape:pageshadow="2"
     inkscape:window-width="2560"
     inkscape:window-height="1017"
     id="namedview7"
     showgrid="false"
     inkscape:zoom="4.9166667"
     inkscape:cx="-78.406779"
     inkscape:cy="24"
     inkscape:window-x="-8"
     inkscape:window-y="-8"
     inkscape:window-maximized="1"
     inkscape:current-layer="svg4" />
  <metadata
     id="metadata10">
    <rdf:RDF>
      <cc:Work
         rdf:about="">
        <dc:format>image/svg+xml</dc:format>
        <dc:type
           rdf:resource="http://purl.org/dc/dcmitype/StillImage" />
        <dc:title />
      </cc:Work>
    </rdf:RDF>
  </metadata>
  <defs
     id="defs8" />
  <path
     id="path2"
     display="inline"
     d="m 38.344169,18.712883 0.688764,-1.489871 2.278085,-1.303869 -0.67035,-6.2762435 -5.497238,3.1012895 0.263352,2.61326 -0.813996,1.425414 z M 28.167371,37.698151 c -1.031309,2.13444 0.276242,4.517497 -0.734807,5.567221 -0.712707,0.738489 -2.276242,0.151014 -3.703498,-0.605894 -1.534071,-0.810312 -3.001842,-1.802947 -2.670351,-2.876611 0.46593,-1.511971 2.858195,-1.160221 4.092082,-3.502764 1.233886,-2.348066 -0.01474,-5.383057 0.937383,-6.136281 0.952119,-0.753222 1.928178,0.125227 3.539596,0.924494 1.609577,0.799265 2.871088,1.211787 2.756906,2.394109 -0.117865,1.237568 -3.116022,1.9558 -4.217311,4.235726 z M 33.907703,6.3279815 C 27.880078,3.2248485 23.581735,3.8178495 16.675657,6.5600264 10.992416,8.8141705 9.2833916,12.027799 6.5246422,12.140137 c 1.7071834,2.270718 0.806631,5.723758 1.495397,10.891346 0.6961324,5.213629 3.2302028,11.057093 10.0000008,14.692451 0,0 -0.05708,-6.813996 3.484348,-9.61326 4.961325,-3.91897 7.843463,-2.394107 7.843463,-2.394107 0.101283,0.440147 0.154694,1.325966 -0.388583,1.810312 -0.821363,0.731124 -1.640884,0.318601 -1.267036,1.451197 0.239411,0.729284 3.808472,2.729282 5.152855,2.462248 1.116024,-0.220994 -0.406997,-2.130756 0.906079,-3.779005 0.731122,-0.171272 1.519335,0.300183 2.053406,0.806629 l 1.038674,2.222837 5.298343,-0.357274 -2.585636,-4.408842 -2.57827,0.449356 -1.924493,-1.057091 1.970534,-3.830571 c 0.767958,0.132601 1.87293,0.729282 2.268877,-0.0056 0.257827,-0.478824 0.104975,-0.915287 -0.616943,-1.313077 -2.696132,-1.491713 -2.848988,-1.515655 -4.718231,-2.486188 -1.186005,-0.616944 -1.959485,-0.607735 -2.217312,-0.02578 -0.28361,0.644567 1.353592,1.861878 1.353592,1.861878 l -1.738491,3.370166 c 0,0 -3.82873,-2.871087 -2.81768,-8.410682 1.012892,-5.5395955 5.370167,-8.1510125 5.370167,-8.1510125 z m -7.038674,3.511971 -0.117865,1.3462245 c 0,0 -1.775322,0.405157 -2.6372,0.696134 -0.860037,0.290974 -2.526704,1.044198 -2.526704,1.044198 L 21.49518,9.5710765 c 0,0 1.554328,-0.169429 2.771639,-0.123393 1.219154,0.0442 2.60221,0.392265 2.60221,0.392265 z m -8.051567,0.8618795 0.346226,2.987107 c -2.712707,1.303868 -3.228362,2.117864 -3.769799,2.734808 -0.08287,0.644568 -0.495396,1.499079 -0.206262,5.322285 l -2.620626,1.314917 c 0.0019,0.06629 -0.440148,-1.889504 -0.530386,-4.405158 -0.09208,-2.513811 0.311233,-3.744015 0.311233,-3.744015 0,0 0.893187,-1.252302 2.928177,-2.517496 2.034992,-1.265193 3.541437,-1.69429 3.541437,-1.69429 z m 6.850831,3.906077 c -0.421732,5.018417 2.488028,8.440148 2.488028,8.440148 -3.430938,0.01842 -5.631676,0.692451 -8.263351,2.762433 -1.942911,-2.465932 -1.583795,-6.605895 -1.583795,-6.605895 l 3.830571,1.972375 1.108657,1.650094 c 1.445672,0.06076 3.193369,-0.681401 3.193369,-0.681401 0,0 -0.233886,-1.59116 -1.281766,-2.953959 l -1.902395,-0.04605 -3.771641,-1.941069 c 2.52118,-2.712708 6.182323,-2.596686 6.182323,-2.596686 z m -12.191531,10.795582 2.802947,-1.587476 c 0,0 0.06999,1.303866 0.53407,2.653774 0.462246,1.35175 1.093923,2.499079 1.093923,2.499079 l -1.099447,0.906078 c 0,0 -1.186005,-0.979743 -1.926336,-2.095764 -0.742174,-1.116023 -1.406999,-2.375691 -1.406999,-2.375691 z"
     stroke-miterlimit="4"
     style="display:inline;fill-opacity:1;stroke:none;stroke-width:0.11970535;stroke-linecap:butt;stroke-linejoin:miter;stroke-miterlimit:4;stroke-opacity:1" />
</svg>
