<?xml version="1.0" encoding="UTF-8" standalone="no"?>
<svg
   xmlns:dc="http://purl.org/dc/elements/1.1/"
   xmlns:cc="http://creativecommons.org/ns#"
   xmlns:rdf="http://www.w3.org/1999/02/22-rdf-syntax-ns#"
   xmlns:svg="http://www.w3.org/2000/svg"
   xmlns="http://www.w3.org/2000/svg"
   xmlns:sodipodi="http://sodipodi.sourceforge.net/DTD/sodipodi-0.dtd"
   xmlns:inkscape="http://www.inkscape.org/namespaces/inkscape"
   height="48"
   width="48"
   id="svg4"
   version="1.1"
   viewBox="0 0 48 48"
   sodipodi:docname="brawler.svg"
   inkscape:export-filename="C:\Users\alexa\Desktop\ClassIcons\classBrawler.png"
   inkscape:export-xdpi="256"
   inkscape:export-ydpi="256"
   inkscape:version="0.92.3 (2405546, 2018-03-11)">
  <sodipodi:namedview
     pagecolor="#ffffff"
     bordercolor="#666666"
     borderopacity="1"
     objecttolerance="10"
     gridtolerance="10"
     guidetolerance="10"
     inkscape:pageopacity="0"
     inkscape:pageshadow="2"
     inkscape:window-width="2560"
     inkscape:window-height="1017"
     id="namedview832"
     showgrid="false"
     inkscape:zoom="4.2708333"
     inkscape:cx="-93.806199"
     inkscape:cy="9.2214795"
     inkscape:window-x="-8"
     inkscape:window-y="-8"
     inkscape:window-maximized="1"
     inkscape:current-layer="svg4" />
  <metadata
     id="metadata10">
    <rdf:RDF>
      <cc:Work
         rdf:about="">
        <dc:format>image/svg+xml</dc:format>
        <dc:type
           rdf:resource="http://purl.org/dc/dcmitype/StillImage" />
        <dc:title />
      </cc:Work>
    </rdf:RDF>
  </metadata>
  <defs
     id="defs8" />
  <path
     id="path2"
     display="inline"
     d="M 15.525333,30.726333 C 10.97023,30.090737 7.7858971,29.323785 7.7858971,29.323785 l -1.023309,-2.438569 c 0,0 4.3072189,1.141954 8.2585059,1.631362 a 46.207804,46.207804 0 0 0 7.406808,0.211866 l 1.076275,-0.512714 1.074157,0.512714 a 46.207804,46.207804 0 0 0 7.408927,-0.211866 c 3.951286,-0.489408 8.468253,-1.631362 8.468253,-1.631362 l -1.197039,2.281789 c 0,0 -3.150436,0.923732 -7.705538,1.559328 -4.555102,0.635595 -7.635623,0.851698 -8.050879,0.84746 -0.411018,0 -3.423742,-0.211865 -7.976725,-0.84746 z M 23.131295,9.9635419 c 0,0 -4.495781,1.9428041 -6.707654,2.5614501 -2.213991,0.620766 -6.237311,0.983055 -6.237311,0.983055 0,0 -0.5000019,2.288145 -1.8898389,4.839001 -1.389835,2.550857 -3.7500129,4.8729 -3.7500129,4.8729 0,0 6.9131618,0.61441 11.4979248,-1.733057 4.584763,-2.347467 2.091109,-6.796636 0.868647,-5.771208 -0.716104,0.599578 -0.440679,1.627124 -0.595341,2.197041 -0.311442,1.144073 -0.616528,1.593227 -2.072042,1.523311 -3.203402,-0.152542 0.366527,-6.203413 4.487305,-4.930103 3.713998,1.146191 2.116534,4.586882 0.983055,5.716124 -0.841105,0.836867 -2.665265,2.512721 -6.305109,3.188571 -3.6377259,0.673732 -8.2881678,0.726698 -8.2881678,0.726698 l 0.254239,1.078394 c 1.1440719,0.540256 4.1462019,1.529666 8.1525738,2.08899 4.004253,0.561443 8.610202,0.540257 8.610202,0.540257 l 0.99153,-0.48729 z m 0.781782,0.03601 c 0,0 4.49578,1.9406851 6.709771,2.5593321 2.211873,0.620765 6.235194,0.983055 6.235194,0.983055 0,0 0.502121,2.286025 1.889838,4.839 1.389836,2.552977 3.750014,4.872901 3.750014,4.872901 0,0 -6.911043,0.614409 -11.497926,-1.733058 -4.584762,-2.347467 -2.091109,-6.796636 -0.868646,-5.771208 0.716104,0.599579 0.440679,1.627124 0.59534,2.197042 0.311442,1.144072 0.618647,1.593226 2.072042,1.523311 3.203403,-0.152543 -0.364408,-6.203413 -4.485186,-4.930103 -3.716116,1.14619 -2.118653,4.586881 -0.985173,5.716123 0.841105,0.836867 2.665264,2.512722 6.305108,3.186453 3.639845,0.677968 8.290286,0.728816 8.290286,0.728816 l -0.254238,1.078394 c -1.144072,0.540256 -4.14832,1.529667 -8.152573,2.088991 -4.006372,0.559324 -8.612321,0.540256 -8.612321,0.540256 l -0.99153,-0.48729 z M 30.029626,35.26236 c 0.05721,3.974592 -0.743647,4.921629 -3.605946,5.089003 -2.862299,0.169492 -2.387721,-1.762719 -2.413145,-4.487306 z m 6.872908,-0.805088 c -0.05509,0.07415 0,1.885601 -0.381357,2.927978 -0.379239,1.038139 -1.773312,1.66526 -3.008486,1.85382 -1.686448,0.256357 -2.372891,-0.902545 -2.385604,-1.690684 -0.02119,-1.271191 -0.01695,-2.419501 -0.01695,-2.419501 z M 16.83466,35.262364 c -0.0572,3.974592 0.743647,4.921629 3.605946,5.089003 2.8623,0.169492 2.387721,-1.762719 2.413145,-4.487306 z m -0.09746,-2.156788 6.220363,0.667376 -0.0339,1.561446 -6.207652,-0.665257 z m -6.7754499,1.353819 c 0,0 0.1334749,1.563565 0.7542399,2.92374 0.620766,1.362293 1.398311,1.667379 2.637722,1.855939 1.684329,0.256357 2.370772,-0.902545 2.383485,-1.690684 0.02118,-1.271191 0.01695,-2.419501 0.01695,-2.419501 z m -0.73941,-2.544501 6.5784149,1.101699 -0.0339,1.580514 -5.9258699,-0.853817 z m 20.9852489,1.190682 -6.220362,0.667376 0.03601,1.561446 6.207652,-0.665257 z m 6.875028,-0.737291 -5.938583,0.686443 0.03601,1.542379 5.84748,-0.665257 z m 4.961883,-5.8157 1.190682,1.843227 -1.190682,5.478835 -4.065693,2.521196 0.105932,-4.063575 1.711871,-0.8178 z M 17.313475,10.868207 c -2.957638,1.000004 -6.258499,1.368648 -6.258499,1.368648 l 0.754241,-2.213991 c 0,0 3.173741,-0.8728853 5.728836,-1.8093283 2.559331,-0.936445 5.964005,-2.769079 5.964005,-2.769079 0,0 3.406793,1.832634 5.961888,2.769079 2.557213,0.936443 5.728835,1.8093283 5.728835,1.8093283 l 0.756359,2.213991 c 0,0 -3.302979,-0.368644 -6.260616,-1.368648 -2.955521,-1.0000043 -6.186466,-2.6038243 -6.186466,-2.6038243 0,0 -3.230944,1.60382 -6.186464,2.6038243 z"
     stroke-miterlimit="4"
     style="display:inline;fill-opacity:1;stroke:#000000;stroke-width:0;stroke-linecap:butt;stroke-linejoin:miter;stroke-miterlimit:4;stroke-opacity:1" />
</svg>
