<?xml version="1.0" encoding="UTF-8" standalone="no"?>
<!-- Created with Inkscape (http://www.inkscape.org/) -->

<svg
   xmlns:dc="http://purl.org/dc/elements/1.1/"
   xmlns:cc="http://creativecommons.org/ns#"
   xmlns:rdf="http://www.w3.org/1999/02/22-rdf-syntax-ns#"
   xmlns:svg="http://www.w3.org/2000/svg"
   xmlns="http://www.w3.org/2000/svg"
   xmlns:sodipodi="http://sodipodi.sourceforge.net/DTD/sodipodi-0.dtd"
   xmlns:inkscape="http://www.inkscape.org/namespaces/inkscape"
   width="64"
   height="64"
   viewBox="0 0 16.933333 16.933334"
   version="1.1"
   id="svg1527"
   inkscape:version="0.92.3 (2405546, 2018-03-11)"
   sodipodi:docname="discord.svg">
  <defs
     id="defs1521" />
  <sodipodi:namedview
     id="base"
     pagecolor="#ffffff"
     bordercolor="#666666"
     borderopacity="1.0"
     inkscape:pageopacity="0.0"
     inkscape:pageshadow="2"
     inkscape:zoom="5.6"
     inkscape:cx="28.94425"
     inkscape:cy="24.623389"
     inkscape:document-units="mm"
     inkscape:current-layer="layer1"
     showgrid="false"
     units="px"
     inkscape:snap-bbox="true"
     inkscape:bbox-paths="true"
     inkscape:bbox-nodes="true"
     inkscape:snap-bbox-edge-midpoints="true"
     inkscape:snap-bbox-midpoints="true"
     inkscape:object-paths="true"
     inkscape:snap-intersection-paths="true"
     inkscape:snap-smooth-nodes="true"
     inkscape:snap-midpoints="true"
     inkscape:snap-object-midpoints="true"
     inkscape:snap-center="true"
     inkscape:snap-text-baseline="true"
     inkscape:snap-page="true"
     inkscape:window-width="1920"
     inkscape:window-height="1017"
     inkscape:window-x="-8"
     inkscape:window-y="-8"
     inkscape:window-maximized="1" />
  <metadata
     id="metadata1524">
    <rdf:RDF>
      <cc:Work
         rdf:about="">
        <dc:format>image/svg+xml</dc:format>
        <dc:type
           rdf:resource="http://purl.org/dc/dcmitype/StillImage" />
        <dc:title />
      </cc:Work>
    </rdf:RDF>
  </metadata>
  <g
     inkscape:label="Layer 1"
     inkscape:groupmode="layer"
     id="layer1"
     transform="translate(0,-280.06665)">
    <g
       id="surface1-4"
       transform="matrix(0.38484849,0,0,0.37722454,-0.76969721,279.47993)"
       style="fill:#ffffff">
      <path
         id="path3794"
         d="M 40,12 C 40,12 35.414063,8.410156 30,8 L 29.511719,8.976563 C 34.40625,10.175781 36.652344,11.890625 39,14 34.953125,11.933594 30.960938,10 24,10 17.039063,10 13.046875,11.933594 9,14 11.347656,11.890625 14.019531,9.984375 18.488281,8.976563 L 18,8 c -5.679687,0.535156 -10,4 -10,4 0,0 -5.121094,7.425781 -6,22 5.160156,5.953125 13,6 13,6 l 1.640625,-2.183594 C 13.855469,36.847656 10.714844,35.121094 8,32 c 3.238281,2.449219 8.125,5 16,5 7.875,0 12.761719,-2.550781 16,-5 -2.714844,3.121094 -5.855469,4.847656 -8.640625,5.816406 L 33,40 c 0,0 7.839844,-0.04687 13,-6 C 45.121094,19.425781 40,12 40,12 Z M 17.5,30 C 15.566406,30 14,28.210938 14,26 c 0,-2.210937 1.566406,-4 3.5,-4 1.933594,0 3.5,1.789063 3.5,4 0,2.210938 -1.566406,4 -3.5,4 z m 13,0 C 28.566406,30 27,28.210938 27,26 c 0,-2.210937 1.566406,-4 3.5,-4 1.933594,0 3.5,1.789063 3.5,4 0,2.210938 -1.566406,4 -3.5,4 z"
         style="fill:#ffffff"
         inkscape:connector-curvature="0" />
    </g>
  </g>
</svg>
