<?xml version="1.0" encoding="UTF-8" standalone="no"?>
<svg
   xmlns:dc="http://purl.org/dc/elements/1.1/"
   xmlns:cc="http://creativecommons.org/ns#"
   xmlns:rdf="http://www.w3.org/1999/02/22-rdf-syntax-ns#"
   xmlns:svg="http://www.w3.org/2000/svg"
   xmlns="http://www.w3.org/2000/svg"
   xmlns:sodipodi="http://sodipodi.sourceforge.net/DTD/sodipodi-0.dtd"
   xmlns:inkscape="http://www.inkscape.org/namespaces/inkscape"
   height="48"
   width="48"
   id="svg4"
   version="1.1"
   viewBox="0 0 48 48"
   sodipodi:docname="gunner.svg"
   inkscape:export-filename="C:\Users\alexa\Desktop\ClassIcons\classGunner.png"
   inkscape:export-xdpi="256"
   inkscape:export-ydpi="256"
   inkscape:version="0.92.3 (2405546, 2018-03-11)">
  <sodipodi:namedview
     pagecolor="#ffffff"
     bordercolor="#666666"
     borderopacity="1"
     objecttolerance="10"
     gridtolerance="10"
     guidetolerance="10"
     inkscape:pageopacity="0"
     inkscape:pageshadow="2"
     inkscape:window-width="2560"
     inkscape:window-height="1017"
     id="namedview7"
     showgrid="false"
     inkscape:zoom="4.9166667"
     inkscape:cx="-43.728813"
     inkscape:cy="24"
     inkscape:window-x="-8"
     inkscape:window-y="-8"
     inkscape:window-maximized="1"
     inkscape:current-layer="svg4" />
  <metadata
     id="metadata10">
    <rdf:RDF>
      <cc:Work
         rdf:about="">
        <dc:format>image/svg+xml</dc:format>
        <dc:type
           rdf:resource="http://purl.org/dc/dcmitype/StillImage" />
        <dc:title />
      </cc:Work>
    </rdf:RDF>
  </metadata>
  <defs
     id="defs8" />
  <path
     id="path2"
     display="inline"
     d="m 11.852576,14.196999 c 0,0 4.925556,-6.3511613 12.713224,-6.4247583 7.784946,-0.07632 12.882222,6.4247583 12.882222,6.4247583 h 3.712567 c 0,0 -5.538862,-9.2078203 -16.594789,-9.2078203 -11.058651,0 -16.4585013,9.2078203 -16.4585013,9.2078203 z m 23.67102,2.352382 c 2.172473,4.361311 3.363663,5.617915 7.904873,5.617915 -1.64639,-1.905349 -3.0202,-3.941536 -3.26552,-6.528339 H 36.453097 C 31.841014,9.2605387 24.5658,9.6612337 24.5658,9.6612337 c 0,0 -7.277939,-0.400695 -11.890027,5.9777233 H 8.9686577 c -0.24805,2.589529 -1.62459,4.62299 -3.268259,6.528339 4.5412183,0 5.7296753,-1.253878 7.9021533,-5.61519 3.761632,-6.075851 10.957796,-5.78964 10.957796,-5.78964 0,0 7.19889,-0.286211 10.960522,5.786915 z M 11.817141,33.713869 c 0,0 4.925556,6.348435 12.713224,6.424758 7.787663,0.07633 12.884951,-6.424758 12.884951,-6.424758 h 3.709843 c 0,0 -5.536139,9.207821 -16.594794,9.207821 -11.058652,0 -16.4585023,-9.207821 -16.4585023,-9.207821 z m 23.673748,-2.355107 c 2.16975,-4.361313 3.36094,-5.615191 7.90215,-5.615191 -1.64367,1.902623 -3.01749,3.938811 -3.26281,6.525614 h -3.71529 c -4.612087,6.378419 -11.8873,5.977724 -11.8873,5.977724 0,0 -7.277939,0.400695 -11.887301,-5.977724 H 8.9304957 c -0.245324,-2.584077 -1.619138,-4.622991 -3.262807,-6.52834 4.5412183,0 5.7324003,1.256604 7.9048803,5.617917 3.761631,6.073126 10.957796,5.78964 10.957796,5.78964 0,0 7.196165,0.283486 10.957799,-5.78964 z m -5.462545,-9.161483 c 1.090327,-0.948585 1.736347,-2.485947 1.951686,-4.59028 1.812676,2.270608 2.472314,4.516684 2.237895,7.354261 a 7.7876675,7.7876675 0 0 1 -4.620261,1.662751 c 0.785035,-1.553717 0.855907,-2.922079 0.43068,-4.426732 z m -10.995958,3.464518 c -1.073973,0.962214 -1.698186,2.507755 -1.880816,4.61754 -1.850832,-2.246076 -2.540465,-4.478524 -2.349656,-7.321554 a 7.7876675,7.7876675 0 0 1 4.595732,-1.730896 c -0.763231,1.564621 -0.812295,2.935709 -0.36526,4.43491 z m 9.684837,2.254254 c 1.354734,0.496099 3.014758,0.316195 4.960999,-0.517906 -1.10941,2.690384 -2.753084,4.353135 -5.350791,5.525236 a 7.7876675,7.7876675 0 0 1 -3.693486,-3.238273 c 1.736347,-0.06815 2.971144,-0.667826 4.083278,-1.771783 z m -8.362815,-7.934863 c -1.36291,-0.474292 -3.017483,-0.272582 -4.950089,0.588777 1.068522,-2.704013 2.687659,-4.38857 5.266285,-5.598834 1.529184,0.5806 2.962966,1.84538 3.74255,3.181031 -1.739073,0.08995 -2.962966,0.708714 -4.058746,1.8263 z m 2.862111,9.575806 c 0.258953,1.417426 1.251151,2.761255 2.949337,4.020585 -2.878465,0.39797 -5.146347,-0.179904 -7.468746,-1.831751 -0.242599,-1.619138 0.152646,-3.48905 0.93223,-4.824701 0.934956,1.471942 2.074349,2.232446 3.587179,2.635867 z m 2.638594,-11.224928 c -0.278034,-1.417425 -1.289313,-2.742174 -3.00658,-3.979697 2.873014,-0.438856 5.146349,0.109033 7.49328,1.725445 a 7.7876675,7.7876675 0 0 1 -0.861359,4.832878 c -0.954038,-1.452862 -2.10706,-2.19701 -3.625341,-2.578626 z"
     stroke-miterlimit="4"
     style="display:inline;opacity:1;fill-opacity:1;stroke:none;stroke-width:0.17717828;stroke-linecap:butt;stroke-linejoin:miter;stroke-miterlimit:4;stroke-opacity:1" />
</svg>
