<?xml version="1.0" encoding="UTF-8" standalone="no"?>
<svg
   xmlns:dc="http://purl.org/dc/elements/1.1/"
   xmlns:cc="http://creativecommons.org/ns#"
   xmlns:rdf="http://www.w3.org/1999/02/22-rdf-syntax-ns#"
   xmlns:svg="http://www.w3.org/2000/svg"
   xmlns="http://www.w3.org/2000/svg"
   xmlns:sodipodi="http://sodipodi.sourceforge.net/DTD/sodipodi-0.dtd"
   xmlns:inkscape="http://www.inkscape.org/namespaces/inkscape"
   height="48"
   width="48"
   id="svg4"
   version="1.1"
   viewBox="0 0 48 48"
   sodipodi:docname="lancer.svg"
   inkscape:export-filename="C:\Users\alexa\Desktop\ClassIcons\classLancer.png"
   inkscape:export-xdpi="256"
   inkscape:export-ydpi="256"
   inkscape:version="0.92.3 (2405546, 2018-03-11)">
  <sodipodi:namedview
     pagecolor="#ffffff"
     bordercolor="#666666"
     borderopacity="1"
     objecttolerance="10"
     gridtolerance="10"
     guidetolerance="10"
     inkscape:pageopacity="0"
     inkscape:pageshadow="2"
     inkscape:window-width="2560"
     inkscape:window-height="1017"
     id="namedview7"
     showgrid="false"
     inkscape:zoom="4.9166667"
     inkscape:cx="-43.728813"
     inkscape:cy="24"
     inkscape:window-x="-8"
     inkscape:window-y="-8"
     inkscape:window-maximized="1"
     inkscape:current-layer="svg4" />
  <metadata
     id="metadata10">
    <rdf:RDF>
      <cc:Work
         rdf:about="">
        <dc:format>image/svg+xml</dc:format>
        <dc:type
           rdf:resource="http://purl.org/dc/dcmitype/StillImage" />
        <dc:title />
      </cc:Work>
    </rdf:RDF>
  </metadata>
  <defs
     id="defs8" />
  <path
     style="display:inline;fill-opacity:1;stroke:none;stroke-width:0.11719361;stroke-linecap:butt;stroke-linejoin:miter;stroke-miterlimit:4;stroke-opacity:1;fill-rule:nonzero"
     id="path2"
     display="inline"
     d="m 23.292401,17.782682 c -2.14915,0 -5.79658,-0.548105 -5.57301,-2.069819 0.32634,0.732009 2.6017,1.25307 5.57301,1.25307 2.97311,0 5.24667,-0.521061 5.57481,-1.25307 0.22177,1.521714 -3.42566,2.069819 -5.57481,2.069819 z m 0,-12.3810541 c -1.50008,1.157512 -3.97557,3.564489 -3.74839,3.917872 0.44173,0.6869351 1.36125,0.7788871 2.34387,0.8528091 v 3.106533 c -1.48746,-0.331748 -2.73512,-1.716436 -3.94131,-3.5987461 -4.75806,3.3823881 -9.2853504,7.7473991 -14.7790204,8.6056171 0.84379,0.06491 2.13833,0.349778 2.69725,1.114241 3.30306,4.523674 4.6859504,16.852442 4.6877504,16.850639 l 12.73985,7.291245 12.74165,-7.291245 c 0.002,0 1.38469,-12.326965 4.68775,-16.850639 0.55892,-0.764463 1.85165,-1.049333 2.69545,-1.114241 -5.49368,-0.858218 -10.02096,-5.223229 -14.77902,-8.6038141 -1.20439,1.8823101 -2.45205,3.2669971 -3.93951,3.5987461 v -3.108336 c 0.98263,-0.07392 1.90215,-0.165874 2.34388,-0.8528091 0.22537,-0.353383 -2.25012,-2.758557 -3.7502,-3.917872 z m -5.89394,7.2155201 c 0.50484,0.167677 0.92854,0.479593 1.11785,1.202587 -1.46943,0.475987 -2.51335,1.283721 -3.2688,2.318631 8.72642,8.347791 5.06998,15.794093 3.18406,18.192055 l 4.86083,4.112594 4.86263,-4.110791 c -1.88591,-2.399765 -5.54235,-9.84787 3.18226,-18.193858 -0.75364,-1.03491 -1.79757,-1.842644 -3.267,-2.318631 0.18932,-0.721191 0.61302,-1.03491 1.11785,-1.202587 1.95984,1.229632 2.82707,2.367311 3.87821,3.521218 -8.84542,9.550378 -4.7184,16.158295 -3.81511,17.728689 0,0 0.60941,0.659891 1.3901,0.232585 0.78249,-0.427306 0.63285,-1.30716 0.63285,-1.30716 -3.95934,-6.959498 0.43091,-10.958504 3.54105,-15.410059 0.70676,-0.329945 1.00967,0.144238 1.24405,0.757251 -1.71824,1.465822 -3.0254,3.31027 -4.10899,5.412542 1.5686,-1.108831 3.16603,-2.668408 4.44615,-2.735118 -1.56318,4.792317 -2.39255,9.231251 -3.3301,13.724273 l -9.77215,5.27191 -9.77394,-5.27191 c -0.93755,-4.491219 -1.76692,-8.931956 -3.33191,-13.724273 1.28012,0.06491 2.88116,1.626287 4.44615,2.735118 -1.08179,-2.102272 -2.39075,-3.94672 -4.10899,-5.412542 0.23439,-0.613013 0.53909,-1.087196 1.24405,-0.757251 3.11195,4.451555 7.5004,8.448759 3.54286,15.410059 0,0 -0.14965,0.879854 0.63104,1.30716 0.78249,0.427306 1.3919,-0.232585 1.3919,-0.232585 0.90149,-1.568591 5.03031,-8.178311 -3.8151,-17.728689 1.05113,-1.153907 1.91656,-2.291586 3.8782,-3.521218 z"
     stroke-miterlimit="4" />
</svg>
