<?xml version="1.0" encoding="UTF-8" standalone="no"?>
<svg
   xmlns:dc="http://purl.org/dc/elements/1.1/"
   xmlns:cc="http://creativecommons.org/ns#"
   xmlns:rdf="http://www.w3.org/1999/02/22-rdf-syntax-ns#"
   xmlns:svg="http://www.w3.org/2000/svg"
   xmlns="http://www.w3.org/2000/svg"
   xmlns:sodipodi="http://sodipodi.sourceforge.net/DTD/sodipodi-0.dtd"
   xmlns:inkscape="http://www.inkscape.org/namespaces/inkscape"
   height="48"
   width="48"
   id="svg4"
   version="1.1"
   viewBox="0 0 48 48"
   sodipodi:docname="mystic.svg"
   inkscape:export-filename="C:\Users\alexa\Desktop\ClassIcons\classMystic.png"
   inkscape:export-xdpi="256"
   inkscape:export-ydpi="256"
   inkscape:version="0.92.3 (2405546, 2018-03-11)">
  <sodipodi:namedview
     pagecolor="#ffffff"
     bordercolor="#666666"
     borderopacity="1"
     objecttolerance="10"
     gridtolerance="10"
     guidetolerance="10"
     inkscape:pageopacity="0"
     inkscape:pageshadow="2"
     inkscape:window-width="2560"
     inkscape:window-height="1017"
     id="namedview7"
     showgrid="false"
     inkscape:zoom="4.9166667"
     inkscape:cx="-43.728813"
     inkscape:cy="24"
     inkscape:window-x="-8"
     inkscape:window-y="-8"
     inkscape:window-maximized="1"
     inkscape:current-layer="svg4" />
  <metadata
     id="metadata10">
    <rdf:RDF>
      <cc:Work
         rdf:about="">
        <dc:format>image/svg+xml</dc:format>
        <dc:type
           rdf:resource="http://purl.org/dc/dcmitype/StillImage" />
        <dc:title />
      </cc:Work>
    </rdf:RDF>
  </metadata>
  <defs
     id="defs8" />
  <path
     id="path2-0"
     display="inline"
     d="m 19.800939,5.4635558 a 4.3409877,4.3409877 0 0 0 -0.67294,0.03487 c -3.75696,0.468967 -4.34622,4.4682531 -3.77788,5.9640632 0.57008,1.497553 2.24546,1.718961 3.20083,0.692118 0.95536,-1.026844 0.40446,-2.7684692 -1.18201,-3.2566122 0.8804,-0.868198 2.98116,-1.773006 3.77614,0.31555 0.58228,1.5289332 -0.83682,3.4344352 -2.82426,5.3626002 -1.98744,1.92991 -6.39119,5.217902 -8.8214497,3.08925 -1.66491,-1.4592 0.37309,-4.736732 2.3012497,-4.304377 -0.56311,1.237791 0.0715,2.709195 0.89435,3.113656 0.82287,0.404461 2.72489,0.523011 3.28625,-0.923986 1.34065,-3.444895 -2.73709,-4.585058 -4.91107,-4.354934 -3.6610697,0.385284 -5.2614897,3.469303 -5.4061897,5.399212 -0.24232,3.209541 2.3152,6.739863 5.3259997,9.815165 l 6.96127,6.92466 c -2.9463,2.151316 -3.94873,3.148523 -6.41037,3.995801 -2.4964997,0.861224 -6.0320597,0.237098 -5.8612097,2.567982 0.20572,2.78939 4.3427397,2.043228 7.5766797,0.158647 3.23395,-1.88284 6.44872,-4.928505 6.44872,-4.928505 0.42539,0 1.70851,2.022308 1.1977,2.998594 0,0 -1.3668,0.104602 -1.7486,0.589259 -0.30509,0.387027 -0.47071,1.068684 -0.18305,1.467918 0.2615,0.36262 0.8525,0.782772 2.69001,0.326009 1.83926,-0.455019 2.28382,-1.793927 2.28382,-1.793927 0,0 0.44456,1.338908 2.28381,1.795671 1.83925,0.453276 2.42851,0.03487 2.69002,-0.327753 0.2894,-0.400978 0.12203,-1.080891 -0.18306,-1.467918 -0.38354,-0.484657 -1.74859,-0.589259 -1.74859,-0.589259 -0.51081,-0.976286 0.77231,-2.998594 1.19769,-2.998594 0,0 3.21651,3.045665 6.45046,4.928505 3.23221,1.884581 7.36922,2.628999 7.57494,-0.156904 0.17259,-2.332627 -3.3647,-1.708501 -5.86121,-2.569725 -2.46163,-0.847278 -3.46407,-1.844485 -6.41036,-3.995801 l 6.96127,-6.92466 c 3.0108,-3.075302 5.56832,-6.605624 5.32599,-9.815165 -0.1447,-1.929909 -1.74685,-5.013928 -5.40793,-5.400956 -2.17572,-0.230124 -6.24998,0.910039 -4.91107,4.356678 0.56311,1.44351 2.46512,1.326704 3.28799,0.922242 0.82113,-0.404461 1.45572,-1.875864 0.89261,-3.113656 1.92816,-0.432355 3.96791,2.845178 2.30299,4.304377 -2.43026,2.130396 -6.83401,-1.157596 -8.82145,-3.085762 -1.98744,-1.926423 -3.40828,-3.835411 -2.82425,-5.3626012 0.79497,-2.088555 2.89399,-1.183747 3.77613,-0.31555 -1.58646,0.488144 -2.13737,2.2315112 -1.182,3.2566112 0.95537,1.026845 2.63074,0.805437 3.19908,-0.692116 0.57008,-1.4958101 -0.0209,-5.4950982 -3.77614,-5.9675502 -3.75521,-0.470712 -4.81692,3.950473 -4.81692,3.950473 0,0 -0.93271,-3.887712 -4.14225,-3.98534 z m 4.11435,5.9239652 c 0.81067,2.764983 3.03346,2.45292 2.46512,6.019852 1.447,-0.725242 8.23568,0.127266 10.40791,4.42467 1.01987,2.017077 -7.88525,9.135251 -8.27228,9.982527 -0.69909,-0.101119 -1.17154,-0.507319 -1.36331,-1.288349 0,0 2.31519,-0.421895 2.73883,-1.457456 0.66073,-1.612616 -1.32496,-1.638766 -1.59344,-2.895735 4.55716,-0.47594 4.29566,-4.161421 7.18268,-5.116787 0,0 -3.2601,-4.708838 -8.53031,0.245816 -0.1569,0.146442 -1.00766,0.414921 -1.4191,0.132495 -0.40969,-0.284169 -0.0523,-1.377261 -0.0523,-1.377261 0.80544,-0.132496 1.36332,-0.122036 1.71199,-0.188283 0.34867,-0.06625 0.48814,-0.203975 0.45502,-0.6311 -0.13424,-1.746855 -3.08576,-1.065198 -3.77439,0.842047 -0.59798,-1.963033 -3.57217,-2.566239 -3.68549,-0.842047 -0.0558,0.854251 0.58054,0.523011 2.18967,0.784516 0,0 0.33473,1.127959 -0.075,1.412128 -0.40969,0.282426 -1.2622,0.01394 -1.4191,-0.132495 -5.2702,-4.954654 -8.52856,-0.245816 -8.52856,-0.245816 2.88702,0.955366 2.62377,4.640847 7.18268,5.116787 -0.27022,1.256969 -2.25418,1.283119 -1.59344,2.893991 0.42364,1.037305 2.73709,1.4592 2.73709,1.4592 -0.19177,0.78103 -0.66249,1.185491 -1.36332,1.290093 -0.38528,-0.84902 -9.29215,-7.967194 -8.27054,-9.984271 2.17224,-4.297404 8.96092,-5.149912 10.40791,-4.42467 -0.57008,-3.566932 1.6562,-3.254869 2.46338,-6.019852 z m 0,17.700421 c 0.81938,1.591696 1.89678,2.82077 2.91491,4.131784 l -0.6956,0.584029 c -0.72176,-0.645047 -1.38075,-1.415616 -2.21757,-1.830538 -0.83681,0.414922 -1.49581,1.185491 -2.21756,1.830538 l -0.69735,-0.582286 c 1.01813,-1.312757 2.09553,-2.541831 2.91491,-4.133527 z"
     stroke-miterlimit="4"
     style="display:inline;fill-opacity:1;stroke:none;stroke-width:0.42886868;stroke-linecap:butt;stroke-linejoin:miter;stroke-miterlimit:4;stroke-opacity:1" />
</svg>
