<?xml version="1.0" encoding="UTF-8" standalone="no"?>
<svg
   xmlns:dc="http://purl.org/dc/elements/1.1/"
   xmlns:cc="http://creativecommons.org/ns#"
   xmlns:rdf="http://www.w3.org/1999/02/22-rdf-syntax-ns#"
   xmlns:svg="http://www.w3.org/2000/svg"
   xmlns="http://www.w3.org/2000/svg"
   xmlns:sodipodi="http://sodipodi.sourceforge.net/DTD/sodipodi-0.dtd"
   xmlns:inkscape="http://www.inkscape.org/namespaces/inkscape"
   height="48"
   width="48"
   id="svg4"
   version="1.1"
   viewBox="0 0 48 48"
   sodipodi:docname="ninja.svg"
   inkscape:export-filename="C:\Users\alexa\Desktop\ClassIcons\classNinja.png"
   inkscape:export-xdpi="256"
   inkscape:export-ydpi="256"
   inkscape:version="0.92.3 (2405546, 2018-03-11)">
  <sodipodi:namedview
     pagecolor="#ffffff"
     bordercolor="#666666"
     borderopacity="1"
     objecttolerance="10"
     gridtolerance="10"
     guidetolerance="10"
     inkscape:pageopacity="0"
     inkscape:pageshadow="2"
     inkscape:window-width="2560"
     inkscape:window-height="1017"
     id="namedview7"
     showgrid="false"
     inkscape:zoom="4.9166667"
     inkscape:cx="-43.728813"
     inkscape:cy="24"
     inkscape:window-x="-8"
     inkscape:window-y="-8"
     inkscape:window-maximized="1"
     inkscape:current-layer="svg4" />
  <metadata
     id="metadata10">
    <rdf:RDF>
      <cc:Work
         rdf:about="">
        <dc:format>image/svg+xml</dc:format>
        <dc:type
           rdf:resource="http://purl.org/dc/dcmitype/StillImage" />
        <dc:title />
      </cc:Work>
    </rdf:RDF>
  </metadata>
  <defs
     id="defs8" />
  <path
     id="path2"
     display="inline"
     d="m 42.30027,4.9417208 c -1.74352,4.74561 -4.40051,8.3228502 -8.97696,9.2431002 -0.53229,9.75511 -13.24664,4.68246 -7.4026,0.82327 -0.97663,-1.227 -2.11792,-2.03222 -3.61784,-0.61576 1.26309,1.56984 0.84131,2.95022 0.0361,4.17947 -0.43306,-6.22748 -4.38021,-5.932 -7.25599,-6.20267 0.0947,-1.50668 -0.97439,-2.4878302 -2.07733,-2.9321702 10.97083,0.6225302 14.2481,5.2418202 14.30448,8.3115802 C 30.45432,10.289551 13.19737,5.4334208 5.2782501,6.9062708 10.02386,8.6497908 13.6011,11.306791 14.52361,15.883231 c 9.75285,0.5323 4.68019,13.24665 0.76011,7.26276 -1.2879,0.83454 -2.09312,1.97583 -0.67666,3.47575 1.48188,-1.01498 2.88706,-0.72177 4.17722,-0.0361 -6.22522,0.43306 -5.93201,4.38021 -6.20267,7.256 -1.50668,-0.0925 -2.48558,0.97438 -2.9321699,2.07958 0.6247799,-10.97308 5.2440699,-14.24809 8.3138299,-14.30674 -7.45899,-3.14419 -12.3151159,14.11502 -10.8422599,22.03189 1.74351,-4.74561 4.4005099,-8.32286 8.9769499,-9.24537 0.5323,-9.75285 13.24665,-4.68019 7.41614,-0.72402 0.99016,1.32399 2.13146,2.13147 3.63138,0.715 -1.01273,-1.48413 -0.64508,-2.89157 -0.0338,-4.17947 0.43081,6.22523 4.37796,5.93201 7.25374,6.20267 -0.0925,1.50669 0.97439,2.48558 2.07959,2.93217 -10.97309,-0.62478 -14.2481,-5.24182 -14.30674,-8.31383 -3.14193,7.46125 14.11502,12.31512 22.03188,10.84226 -4.74561,-1.74351 -8.32285,-4.39825 -9.24536,-8.97695 -9.75285,-0.53005 -4.68019,-13.24665 -0.77364,-7.35749 1.27437,-0.93153 2.07958,-2.07508 0.66312,-3.575 -1.41646,1.03077 -2.80586,0.92928 -4.17722,0.0361 6.22523,-0.43306 5.93201,-4.38021 6.20267,-7.25599 1.50669,0.0925 2.48558,-0.97438 2.93218,-2.07733 -0.62479,10.97083 -5.24408,14.24809 -8.31384,14.30448 7.45899,3.14419 12.31512,-14.11276 10.84227,-22.0318802 z M 24.76589,21.896431 a 2.37957,2.37957 0 1 1 0,4.75914 2.37957,2.37957 0 0 1 0,-4.75914 z"
     stroke-miterlimit="4"
     style="display:inline;fill-opacity:1;stroke:#ffe60c;stroke-width:0;stroke-linecap:butt;stroke-linejoin:miter;stroke-miterlimit:4;stroke-opacity:1" />
</svg>
