<?xml version="1.0" encoding="UTF-8" standalone="no"?>
<svg
   xmlns:dc="http://purl.org/dc/elements/1.1/"
   xmlns:cc="http://creativecommons.org/ns#"
   xmlns:rdf="http://www.w3.org/1999/02/22-rdf-syntax-ns#"
   xmlns:svg="http://www.w3.org/2000/svg"
   xmlns="http://www.w3.org/2000/svg"
   xmlns:sodipodi="http://sodipodi.sourceforge.net/DTD/sodipodi-0.dtd"
   xmlns:inkscape="http://www.inkscape.org/namespaces/inkscape"
   height="48"
   width="48"
   id="svg4"
   version="1.1"
   viewBox="0 0 48 48"
   sodipodi:docname="reaper.svg"
   inkscape:export-filename="C:\Users\alexa\Desktop\ClassIcons\classReaper.png"
   inkscape:export-xdpi="255"
   inkscape:export-ydpi="255"
   inkscape:version="0.92.3 (2405546, 2018-03-11)">
  <sodipodi:namedview
     pagecolor="#ffffff"
     bordercolor="#666666"
     borderopacity="1"
     objecttolerance="10"
     gridtolerance="10"
     guidetolerance="10"
     inkscape:pageopacity="0"
     inkscape:pageshadow="2"
     inkscape:window-width="2560"
     inkscape:window-height="1017"
     id="namedview7"
     showgrid="false"
     inkscape:zoom="4.9166667"
     inkscape:cx="-43.728813"
     inkscape:cy="24"
     inkscape:window-x="-8"
     inkscape:window-y="-8"
     inkscape:window-maximized="1"
     inkscape:current-layer="svg4" />
  <metadata
     id="metadata10">
    <rdf:RDF>
      <cc:Work
         rdf:about="">
        <dc:format>image/svg+xml</dc:format>
        <dc:type
           rdf:resource="http://purl.org/dc/dcmitype/StillImage" />
        <dc:title />
      </cc:Work>
    </rdf:RDF>
  </metadata>
  <defs
     id="defs8" />
  <path
     id="path2-6"
     display="inline"
     d="m 8.5195404,23.110306 c -0.870273,-1.77607 -1.236143,-2.81863 -1.410197,-5.390374 l -4.830904,-1.4102 z M 20.135024,14.183782 c -6.576779,-3.8967 -9.732851,-0.51506 -9.03308,4.44372 0.621623,4.379784 5.367276,10.510774 9.031303,13.974104 -4.994302,-2.25383 -9.8998,-4.52364 -15.1676176,-8.34396 2.333753,4.75098 6.7881306,9.80034 10.9245926,14.41278 -0.413824,-1.71923 -1.232591,-3.80788 -1.303634,-6.28017 3.866499,0.39784 6.168283,2.68186 6.479095,4.29098 0.332125,1.72278 -1.449271,2.18101 -1.811589,0.92888 -0.309036,-1.07274 0.09591,-2.20055 0.09591,-2.20055 -2.440317,0.25931 -2.998003,5.28558 -0.165175,5.93562 2.088656,0.47954 3.937542,-1.28232 4.360246,-2.99445 1.447495,-5.85214 -5.35662,-10.41486 -8.40968,-16.01125 -2.788426,-5.111524 -2.813291,-9.363434 4.997854,-5.949834 z m 0,-2.87723 c -1.744099,-1.67306 -3.67646,-1.79206 -5.630135,-1.71924 l 0.268186,-3.16317 -3.933989,5.15592 -2.4989286,-3.37453 C 7.1626254,19.950672 6.3225454,23.744356 18.414014,31.353036 5.8962884,20.359166 9.1784614,7.218042 20.133247,13.388102 v -2.07978 m 20.15304,11.801984 c 0.870273,-1.77607 1.236143,-2.81863 1.410197,-5.390374 l 4.830904,-1.4102 z M 28.670804,14.183782 c 6.576779,-3.8967 9.732851,-0.51506 9.03308,4.44372 -0.621623,4.379784 -5.367276,10.510774 -9.031303,13.974104 4.994302,-2.25383 9.8998,-4.52364 15.167617,-8.34396 -2.333753,4.75098 -6.78813,9.80034 -10.924592,14.41278 0.413824,-1.71923 1.232591,-3.80788 1.303634,-6.28017 -3.866499,0.39784 -6.168283,2.68186 -6.479095,4.29098 -0.332125,1.72278 1.449271,2.18101 1.811589,0.92888 0.309036,-1.07274 -0.09591,-2.20055 -0.09591,-2.20055 2.440317,0.25931 2.998003,5.28558 0.165175,5.93562 -2.088656,0.47954 -3.937542,-1.28232 -4.360246,-2.99445 -1.447495,-5.85214 5.35662,-10.41486 8.40968,-16.01125 2.788426,-5.111524 2.813291,-9.363434 -4.997854,-5.949834 z m 0,-2.87723 c 1.744099,-1.67306 3.67646,-1.79206 5.630135,-1.71924 l -0.269962,-3.16317 3.932213,5.15592 2.498927,-3.37453 C 41.63965,19.950672 42.47973,23.744356 30.388262,31.353036 42.905986,20.359166 39.623814,7.218042 28.669028,13.388102 v -2.07978 m -8.084659,-3.58233 v 9.46112 c 0.594982,0.0284 0.912898,0.3854 1.122474,0.82409 -3.724413,5.727824 -2.220084,9.608534 0.689115,13.531874 -0.317917,-3.0282 -0.346334,-6.40273 2.015836,-9.33146 2.36217,2.92873 2.331977,6.30326 2.014061,9.33146 2.909199,-3.92511 4.415304,-7.80405 0.69089,-13.531874 0.209576,-0.43869 0.527492,-0.79568 1.122475,-0.82409 v -9.46112 l -3.827426,6.43292 z m 3.827425,9.86784 a 0.75838087,0.75838087 0 0 1 0.758381,0.76015 0.75838087,0.75838087 0 0 1 -0.758381,0.75838 0.75838087,0.75838087 0 0 1 -0.760157,-0.75838 0.75838087,0.75838087 0 0 1 0.760157,-0.76015 z m -1.443943,2.19167 c 0.468882,-0.0622 0.946644,0.433364 0.536373,0.982164 -1.493673,1.99453 -2.101088,3.00866 -2.369274,4.79006 -0.118997,-1.89329 0.04795,-3.66936 1.401317,-5.504044 a 0.63938434,0.63938434 0 0 1 0.431584,-0.2664 z m 2.880782,0 a 0.63938434,0.63938434 0 0 1 0.431584,0.26818 c 1.353364,1.834684 1.520314,3.610754 1.401318,5.505814 -0.26641,-1.78317 -0.875602,-2.7973 -2.367498,-4.79183 -0.412048,-0.5488 0.06571,-1.044324 0.53282,-0.982164 z"
     stroke-miterlimit="4"
     style="display:inline;opacity:1;fill-opacity:1;stroke:#000000;stroke-width:0;stroke-linecap:butt;stroke-linejoin:miter;stroke-miterlimit:4;stroke-opacity:1" />
</svg>
