<?xml version="1.0" encoding="UTF-8" standalone="no"?>
<svg
   xmlns:dc="http://purl.org/dc/elements/1.1/"
   xmlns:cc="http://creativecommons.org/ns#"
   xmlns:rdf="http://www.w3.org/1999/02/22-rdf-syntax-ns#"
   xmlns:svg="http://www.w3.org/2000/svg"
   xmlns="http://www.w3.org/2000/svg"
   xmlns:sodipodi="http://sodipodi.sourceforge.net/DTD/sodipodi-0.dtd"
   xmlns:inkscape="http://www.inkscape.org/namespaces/inkscape"
   height="48"
   width="48"
   id="svg4"
   version="1.1"
   viewBox="0 0 48 48"
   sodipodi:docname="slayer.svg"
   inkscape:export-filename="C:\Users\alexa\Desktop\ClassIcons\classSlayer.png"
   inkscape:export-xdpi="255"
   inkscape:export-ydpi="255"
   inkscape:version="0.92.3 (2405546, 2018-03-11)">
  <sodipodi:namedview
     pagecolor="#ffffff"
     bordercolor="#666666"
     borderopacity="1"
     objecttolerance="10"
     gridtolerance="10"
     guidetolerance="10"
     inkscape:pageopacity="0"
     inkscape:pageshadow="2"
     inkscape:window-width="2560"
     inkscape:window-height="1017"
     id="namedview7"
     showgrid="false"
     inkscape:zoom="4.9166667"
     inkscape:cx="-43.728813"
     inkscape:cy="24"
     inkscape:window-x="-8"
     inkscape:window-y="-8"
     inkscape:window-maximized="1"
     inkscape:current-layer="svg4" />
  <metadata
     id="metadata10">
    <rdf:RDF>
      <cc:Work
         rdf:about="">
        <dc:format>image/svg+xml</dc:format>
        <dc:type
           rdf:resource="http://purl.org/dc/dcmitype/StillImage" />
        <dc:title />
      </cc:Work>
    </rdf:RDF>
  </metadata>
  <defs
     id="defs8" />
  <path
     id="path2"
     display="inline"
     d="m 23.791591,2.5373178 c -1.02183,3.33341 -4.5973,6.77214 -8.71047,10.4455402 4.98902,4.69338 3.28906,10.95737 -1.36736,16.62823 l 3.6309,1.9217 h 2.85852 l 2.45756,-2.48713 h 1.13085 z m 2.14528,34.5499202 v 3.82491 c 2.30603,1.3803 -1.88105,4.97055 -1.88105,4.97055 0,0 -4.18708,-3.59025 -1.88105,-4.97055 v -3.82491 h 1.88105 z M 9.203311,22.840798 c 1.43573,1.43019 2.86222,2.86407 3.57362,4.54186 -2.03811,2.42245 -5.38445,3.60318 -8.71786,4.52523 4.98903,0.73173 8.90633,3.03776 12.1067,5.91846 0,0 4.39219,-6.5966 6.009,-1.21215 h 3.7621 c 1.61681,-5.38445 6.01085,1.21215 6.01085,1.21215 3.19667,-2.8807 7.11767,-5.18673 12.10669,-5.91846 -3.33525,-0.9239 -6.67975,-2.10278 -8.71785,-4.52708 0.7114,-1.67778 2.13789,-3.10982 3.57177,-4.54001 h -2.66081 l -3.81568,2.78646 c 0.64672,1.18813 1.49486,2.50191 2.87885,4.14458 l -4.30165,2.37811 h -3.40917 l -2.35408,-2.44093 h -2.38364 l -2.35408,2.43908 h -3.40362 l -4.30165,-2.37441 c 1.38584,-1.64268 2.23397,-2.95645 2.8807,-4.14458 l -3.81568,-2.78646 z m 14.85251,8.12472 a 2.24229,2.24229 0 1 1 0,4.48458 2.24229,2.24229 0 0 1 0,-4.48458 z m 0.26423,-28.4282002 c 1.02368,3.33341 4.5973,6.77214 8.71232,10.4455402 -4.98903,4.69338 -3.29091,10.95737 1.36736,16.62823 l -3.6309,1.9217 h -2.86037 l -2.45756,-2.48713 h -1.13085 z"
     stroke-miterlimit="4"
     style="display:inline;opacity:1;fill-opacity:1;stroke:#000000;stroke-width:0;stroke-linecap:butt;stroke-linejoin:miter;stroke-miterlimit:4;stroke-opacity:1" />
</svg>
