<?xml version="1.0" encoding="UTF-8" standalone="no"?>
<svg
   xmlns:dc="http://purl.org/dc/elements/1.1/"
   xmlns:cc="http://creativecommons.org/ns#"
   xmlns:rdf="http://www.w3.org/1999/02/22-rdf-syntax-ns#"
   xmlns:svg="http://www.w3.org/2000/svg"
   xmlns="http://www.w3.org/2000/svg"
   xmlns:sodipodi="http://sodipodi.sourceforge.net/DTD/sodipodi-0.dtd"
   xmlns:inkscape="http://www.inkscape.org/namespaces/inkscape"
   height="48"
   width="48"
   id="svg4"
   version="1.1"
   viewBox="0 0 48 48"
   sodipodi:docname="sorcerer.svg"
   inkscape:export-filename="C:\Users\alexa\Desktop\ClassIcons\classSorcerer.png"
   inkscape:export-xdpi="255"
   inkscape:export-ydpi="255"
   inkscape:version="0.92.3 (2405546, 2018-03-11)">
  <sodipodi:namedview
     pagecolor="#ffffff"
     bordercolor="#666666"
     borderopacity="1"
     objecttolerance="10"
     gridtolerance="10"
     guidetolerance="10"
     inkscape:pageopacity="0"
     inkscape:pageshadow="2"
     inkscape:window-width="2560"
     inkscape:window-height="1017"
     id="namedview7"
     showgrid="false"
     inkscape:zoom="4.9166667"
     inkscape:cx="-43.728813"
     inkscape:cy="24"
     inkscape:window-x="-8"
     inkscape:window-y="-8"
     inkscape:window-maximized="1"
     inkscape:current-layer="svg4" />
  <metadata
     id="metadata10">
    <rdf:RDF>
      <cc:Work
         rdf:about="">
        <dc:format>image/svg+xml</dc:format>
        <dc:type
           rdf:resource="http://purl.org/dc/dcmitype/StillImage" />
        <dc:title />
      </cc:Work>
    </rdf:RDF>
  </metadata>
  <defs
     id="defs8" />
  <path
     id="path2"
     d="m 24.457518,3.2469368 -1.61723,2.696 c -3.67043,0.32233 -7.02414,1.73274 -9.74809,3.90334 l -0.0112,-0.0187 -3.7077098,-0.1416 0.47325,3.4971602 a 18.149115,18.149115 0 0 0 -3.56424,9.32143 l -2.7109,1.62282 2.70904,1.60233 a 18.160293,18.160293 0 0 0 3.9927598,9.85988 l -0.1416,3.70211 3.51766,-0.47697 a 18.147252,18.147252 0 0 0 9.18728,3.47108 l 1.61537,2.696 1.59487,-2.69413 a 18.147252,18.147252 0 0 0 9.26553,-3.51394 l 3.49717,0.4751 -0.14161,-3.70584 a 18.156567,18.156567 0 0 0 3.95737,-9.82448 l 2.68296,-1.58741 -2.68296,-1.60606 a 18.139799,18.139799 0 0 0 -3.009,-8.5538 l 0.0186,-0.004 0.49747,-3.67231 -3.62013,0.13787 A 18.167746,18.167746 0 0 0 26.052348,5.9444468 Z m -1.52779,5.16656 c -0.74527,2.9997002 -1.96379,5.6640302 -3.66113,7.8849202 -1.83708,-1.18497 -3.53629,-2.54322 -4.92435,-4.289 a 15.697186,15.697186 0 0 1 8.58548,-3.5959202 z m 3.04441,0 a 15.710229,15.710229 0 0 1 9.2264,4.1567302 c -1.416,1.79609 -3.1562,3.18042 -5.04173,4.38776 -1.97496,-2.34573 -3.36301,-5.24482 -4.18467,-8.5444902 z m -13.54336,5.4926202 0.0149,0.002 c 1.92653,1.00425 3.5866,2.53764 5.13863,4.28902 -2.28983,2.22461 -5.2206,3.81576 -8.8500498,4.57407 a 15.708365,15.708365 0 0 1 3.6965298,-8.86495 z m 24.56586,0.64651 a 15.700912,15.700912 0 0 1 3.17111,8.21844 c -3.30526,-0.68937 -6.03666,-2.06812 -8.22775,-3.98718 1.52966,-1.72343 3.16739,-3.23259 5.05664,-4.23126 z m -12.54471,1.87808 a 7.6855674,7.6855674 0 1 1 0,15.37113 7.6855674,7.6855674 0 0 1 0,-15.37113 z m -15.7158098,9.0289 c 3.2232698,0.67448 5.9006498,2.00478 8.0619198,3.85304 -1.20174,1.87621 -2.57862,3.61082 -4.35981,5.02123 a 15.708365,15.708365 0 0 1 -3.7021098,-8.87427 z m 31.4316298,0 a 15.706502,15.706502 0 0 1 -3.66485,8.83143 c -1.77932,-1.40856 -3.1562,-3.1413 -4.35608,-5.01193 2.15567,-1.83149 4.82001,-3.14875 8.02093,-3.8195 z m -9.82448,5.61746 c 1.73274,1.54084 3.24936,3.18787 4.2443,5.09763 l 0.004,0.0242 a 15.69905,15.69905 0 0 1 -8.61156,3.62014 c 0.84773,-3.39097 2.29541,-6.36085 4.36353,-8.74198 z m -11.74355,0.0429 c 2.04762,2.37368 3.48412,5.32866 4.32441,8.69914 a 15.695323,15.695323 0 0 1 -8.57243,-3.59033 v -0.01 c 0.9968,-1.9116 2.51528,-3.55865 4.24802,-5.09949 z m 5.85221,-13.09061 a 6.0869683,6.0869683 0 0 0 -6.08697,6.0851 6.0869683,6.0869683 0 0 0 6.08697,6.08698 6.0869683,6.0869683 0 0 0 6.08698,-6.08698 6.0869683,6.0869683 0 0 0 -6.08698,-6.08697 z m 0,2.77984 a 3.3071223,3.3071223 0 0 1 3.30712,3.30712 3.3071223,3.3071223 0 0 1 -3.30712,3.30713 3.3071223,3.3071223 0 0 1 -3.30712,-3.30713 3.3071223,3.3071223 0 0 1 3.30712,-3.30712 z"
     stroke-miterlimit="4"
     style="fill-opacity:1;stroke:#000000;stroke-width:0;stroke-linecap:butt;stroke-linejoin:miter;stroke-miterlimit:4;stroke-opacity:1" />
</svg>
