<?xml version="1.0" encoding="UTF-8" standalone="no"?>
<svg
   xmlns:osb="http://www.openswatchbook.org/uri/2009/osb"
   xmlns:dc="http://purl.org/dc/elements/1.1/"
   xmlns:cc="http://creativecommons.org/ns#"
   xmlns:rdf="http://www.w3.org/1999/02/22-rdf-syntax-ns#"
   xmlns:svg="http://www.w3.org/2000/svg"
   xmlns="http://www.w3.org/2000/svg"
   xmlns:sodipodi="http://sodipodi.sourceforge.net/DTD/sodipodi-0.dtd"
   xmlns:inkscape="http://www.inkscape.org/namespaces/inkscape"
   height="48"
   width="48"
   id="svg4"
   version="1.1"
   viewBox="0 0 48 48"
   sodipodi:docname="valkyrie.svg"
   inkscape:export-filename="C:\Users\alexa\Desktop\ClassIcons\classValkyrie.png"
   inkscape:export-xdpi="255"
   inkscape:export-ydpi="255"
   inkscape:version="0.92.3 (2405546, 2018-03-11)">
  <sodipodi:namedview
     pagecolor="#ffffff"
     bordercolor="#666666"
     borderopacity="1"
     objecttolerance="10"
     gridtolerance="10"
     guidetolerance="10"
     inkscape:pageopacity="0"
     inkscape:pageshadow="2"
     inkscape:window-width="2560"
     inkscape:window-height="1017"
     id="namedview7"
     showgrid="false"
     inkscape:zoom="4.9166667"
     inkscape:cx="-43.728813"
     inkscape:cy="24"
     inkscape:window-x="-8"
     inkscape:window-y="-8"
     inkscape:window-maximized="1"
     inkscape:current-layer="svg4" />
  <metadata
     id="metadata10">
    <rdf:RDF>
      <cc:Work
         rdf:about="">
        <dc:format>image/svg+xml</dc:format>
        <dc:type
           rdf:resource="http://purl.org/dc/dcmitype/StillImage" />
        <dc:title />
      </cc:Work>
    </rdf:RDF>
  </metadata>
  <defs
     id="defs8">
    <linearGradient
       id="linearGradient814"
       osb:paint="solid">
      <stop
         style="stop-color:#00aa00;stop-opacity:1;"
         offset="0"
         id="stop812" />
    </linearGradient>
  </defs>
  <path
     id="path2"
     d="M 23.09505,2.7207486 C 6.8176775,2.4420486 -1.9516525,22.713749 5.8621075,33.478109 l 5.8997895,-3.31889 C 8.4913475,20.964709 6.9783575,9.4936286 23.09505,2.7207486 Z M 16.795692,27.258389 c -2.451485,2.08461 -7.0089245,6.28229 -12.1522145,7.61042 -0.67402,1.74903 -0.61998,3.3644 -0.45077,4.95985 0.48774,0.66833 1.06506,1.26841 1.79738,2.00215 0.73374,0.73231 1.33524,1.31105 2.00214,1.79737 1.59546,0.17064 3.2122495,0.22325 4.9598595,-0.44934 1.32955,-5.14471 5.504474,-9.67371 7.611843,-12.15364 -0.654109,-0.25737 -2.168515,-1.59972 -2.168515,-1.59972 0,0 -1.343768,-1.52152 -1.599723,-2.16709 z m -10.2382345,9.81022 c 1.07075,1.85141 2.26379,3.1255 4.2062095,4.2062 -2.4457995,-0.36971 -3.8606695,-1.83434 -4.2062095,-4.2062 z m 14.5354485,-6.61647 c 0,0 2.533964,-3.44117 2.278004,-6.00216 -2.559556,-0.25595 -6.00785,2.28512 -6.00785,2.28512 0.184858,0.59438 1.525781,2.24104 1.525781,2.24104 0,0 1.602569,1.28972 2.204065,1.476 z m 23.994444,-5.73625 c 0.28013,16.27738 -19.993,25.04955 -30.757363,17.23436 l 3.320312,-5.90121 c 9.194501,3.27056 20.664171,4.78496 27.437051,-11.33315 z M 41.08875,6.7321486 c -8.88167,-0.0327 -14.75301,3.3089404 -19.53939,7.8663704 12.48212,-0.23178 -11.246413,12.52051 -1.356565,-1.72912 -6.152898,1.32528 -11.0843075,3.68719 -8.338478,12.47501 0.59297,-2.38324 0.6598,-5.52012 2.2581,-6.20835 -0.56879,1.06363 -0.83185,2.09883 -0.0469,3.04019 3.044455,-0.16211 3.958786,1.20299 3.462517,3.58053 1.293999,-0.67117 3.43123,-2.3804 6.376146,-1.84004 0.54035,2.94491 -1.16745,5.08214 -1.838615,6.37756 2.377545,-0.49769 3.742635,0.41665 3.580535,3.46252 0.93992,0.78351 1.97654,0.52186 3.03876,-0.0469 -0.68824,1.5983 -3.82512,1.66371 -6.20834,2.25668 8.78781,2.74583 11.14971,-2.18416 12.47642,-8.33705 -14.251054,9.88842 -1.49735,-13.83868 -1.73055,-1.35657 4.55744,-4.7878 7.9005,-10.65914 7.86638,-19.5408104 z m -4.08961,4.0910304 c 0.0413,3.32032 -1.4305,6.34771 -3.80094,9.20019 -1.81586,-3.0672 -4.10383,-0.99823 -6.00928,0.61002 1.60684,-1.90545 3.67723,-4.19483 0.60861,-6.00927 2.85391,-2.37043 5.87987,-3.84361 9.20019,-3.80094 z"
     stroke-miterlimit="4"
     style="fill-opacity:1;stroke:#000000;stroke-width:0;stroke-linecap:butt;stroke-linejoin:miter;stroke-miterlimit:4;stroke-opacity:1" />
</svg>
