<?xml version="1.0" encoding="UTF-8" standalone="no"?>
<svg
   xmlns:dc="http://purl.org/dc/elements/1.1/"
   xmlns:cc="http://creativecommons.org/ns#"
   xmlns:rdf="http://www.w3.org/1999/02/22-rdf-syntax-ns#"
   xmlns:svg="http://www.w3.org/2000/svg"
   xmlns="http://www.w3.org/2000/svg"
   xmlns:sodipodi="http://sodipodi.sourceforge.net/DTD/sodipodi-0.dtd"
   xmlns:inkscape="http://www.inkscape.org/namespaces/inkscape"
   height="48"
   width="48"
   id="svg4"
   version="1.1"
   viewBox="0 0 48 48"
   sodipodi:docname="Warrior.svg"
   inkscape:export-filename="C:\Users\alexa\Desktop\ClassIcons\classWarrior.png"
   inkscape:export-xdpi="255"
   inkscape:export-ydpi="255"
   inkscape:version="0.92.3 (2405546, 2018-03-11)">
  <sodipodi:namedview
     pagecolor="#ffffff"
     bordercolor="#666666"
     borderopacity="1"
     objecttolerance="10"
     gridtolerance="10"
     guidetolerance="10"
     inkscape:pageopacity="0"
     inkscape:pageshadow="2"
     inkscape:window-width="2560"
     inkscape:window-height="1017"
     id="namedview7"
     showgrid="false"
     inkscape:zoom="4.9166667"
     inkscape:cx="-43.728813"
     inkscape:cy="24"
     inkscape:window-x="-8"
     inkscape:window-y="-8"
     inkscape:window-maximized="1"
     inkscape:current-layer="svg4" />
  <metadata
     id="metadata10">
    <rdf:RDF>
      <cc:Work
         rdf:about="">
        <dc:format>image/svg+xml</dc:format>
        <dc:type
           rdf:resource="http://purl.org/dc/dcmitype/StillImage" />
        <dc:title />
      </cc:Work>
    </rdf:RDF>
  </metadata>
  <defs
     id="defs8" />
  <path
     id="path2"
     display="inline"
     d="m 35.080019,16.906216 c 1.10848,0.16072 0.78525,1.27831 0.96421,2.02521 0.92587,3.82399 14.45404,-6.18702 2.30461,-2.88532 l -1.64354,-1.64354 v -1.62528 c 0.90212,0.23374 1.72938,0.10956 2.55845,0 l 4.01755,-4.0139001 v -2.50367 h -3.6651 l -5.11324,4.0723401 c -0.78525,1.85537 -2.3594,2.06539 -5.52778,-1.0463801 2.95107,-5.89484 -6.57782,0.7213201 -2.67167,2.1475601 1.14316,0.42001 2.69359,0.54784 1.7184,2.0179 -5.1041,5.66474 -11.86637,9.66403 -17.28457,12.93285 2.99489,1.31118 5.90213,3.15194 8.60119,5.23011 1.34771,-0.76332 2.79951,-1.7531 4.38279,-3.02593 -0.87839,-0.69394 -1.81155,-1.53033 -2.68081,-2.2827 l 10.39815,-8.38389 c 1.3331,-0.0566 2.53105,0.17165 3.64136,-1.01536 z m -1.34222,-2.3539 a 1.8681596,1.8681596 0 1 1 -3.7345,0 1.8681596,1.8681596 0 0 1 3.7345,0 z m -8.90618,21.90659 c 1.49563,1.53031 2.93281,3.16473 4.30608,4.88862 2.96569,1.145 6.18155,1.68554 9.42115,1.43901 a 13.98837,13.98837 0 0 0 -3.29987,-7.95109 c -1.397,0.009 -3.51717,-0.89481 -5.95509,-2.37401 a 58.709151,58.709151 0 0 0 -4.47409,3.99747 z m 4.4467,-15.5954 8.63772,5.52048 c -6.94488,3.04055 -13.13372,8.35833 -18.40036,14.96354 -2.96568,1.145 -6.18155,1.68554 -9.42115,1.43901 a 13.98837,13.98837 0 0 1 3.29803,-7.95109 c 2.86525,0.0183 8.76374,-3.79841 14.2203,-8.53182 l -2.66619,-2.10007 z M 5.426869,6.2597159 v 2.50367 l 4.01572,4.0157201 c 0.82907,0.10594 1.65633,0.23192 2.55662,0 v 1.62529 l -1.64171,1.64354 c -12.14943,-3.30534 1.37874,6.70748 2.30461,2.88349 0.1808,-0.74871 -0.14609,-1.86268 0.96421,-2.02521 1.11031,1.18701 2.02703,1.05188 3.23229,1.12128 l 2.46898,1.87545 c 1.47188,-1.07742 2.9602,-2.16034 4.33347,-3.43682 -1.13588,-1.13953 -2.77577,-2.30462 -3.29257,-3.44414 -0.29766,-1.08838 0.92404,-1.15231 2.03617,-1.58875 3.87146,-1.5157102 -5.62457,-8.0424001 -2.67166,-2.1475601 -3.16839,3.1117701 -4.74255,2.9017501 -5.52778,1.0463801 l -5.1169,-4.0723401 z m 11.40984,6.4244301 a 1.8681619,1.8681619 0 1 1 0,3.73632 1.8681619,1.8681619 0 0 1 0,-3.73632 z"
     stroke-miterlimit="4"
     style="display:inline;fill-opacity:1;stroke:#000000;stroke-width:0;stroke-linecap:butt;stroke-linejoin:miter;stroke-miterlimit:4;stroke-opacity:1" />
</svg>
